<svg id="Layer_1" data-name="Layer 1" xmlns="http://www.w3.org/2000/svg" viewBox="0 0 53.0657 49.51001"><title>Tampa Bay Lightning Logo 2011</title><path d="M53.0657,22.39047c0-5.381-3.346-10.686-9.283-13.946l-2.276,1.805c4.058,2.554,6.446,6.369,6.446,10.699,0,10.107-12.489,19.261-26.388,19.261a28.41489,28.41489,0,0,1-4.177-.305l-4.69,3.471a30.44314,30.44314,0,0,0,9.72,1.534c16.5,0,30.648-11.139,30.648-22.519" fill="#001f5b"/><path d="M32.08,26.149l-8.489,1.659L42.42,12.337l-8.766,1.175L50.692,0,30.857,5.219c-.261-.006-.523-.01-.788-.01C13.814,5.209,0,16.256,0,27.91c0,5.718,3.08,10.267,7.854,13.215L.524,49.51Zm-29.814.038c0-10.451,13.077-19.26,26.388-19.26.092,0,.183.001.275.002L16.06,21.326l7.4-1.17L8.88,34.255l5.913-1.067-4.13,4.724c-5.019-2.376-8.397-6.475-8.397-11.725" fill="#001f5b"/></svg>