<?xml version="1.0" encoding="utf-8"?>
<!-- Generator: Adobe Illustrator 13.0.1, SVG Export Plug-In . SVG Version: 6.00 Build 14948)  -->
<!DOCTYPE svg PUBLIC "-//W3C//DTD SVG 1.1//EN" "http://www.w3.org/Graphics/SVG/1.1/DTD/svg11.dtd">
<svg version="1.1"
	 id="Layer_1" sodipodi:version="0.32" inkscape:version="0.46" sodipodi:docname="Vancouver Canucks logo.svg" inkscape:output_extension="org.inkscape.output.svg.inkscape" xmlns:sodipodi="http://sodipodi.sourceforge.net/DTD/sodipodi-0.dtd" xmlns:dc="http://purl.org/dc/elements/1.1/" xmlns:svg="http://www.w3.org/2000/svg" xmlns:rdf="http://www.w3.org/1999/02/22-rdf-syntax-ns#" xmlns:cc="http://creativecommons.org/ns#" xmlns:inkscape="http://www.inkscape.org/namespaces/inkscape"
	 xmlns="http://www.w3.org/2000/svg" xmlns:xlink="http://www.w3.org/1999/xlink" x="0px" y="0px" width="500px" height="481.918px"
	 viewBox="0 0 500 481.918" enable-background="new 0 0 500 481.918" xml:space="preserve">
<defs>
	
	
		<inkscape:perspective  id="perspective56" inkscape:persp3d-origin="250 : 160.63933 : 1" inkscape:vp_z="500 : 240.959 : 1" sodipodi:type="inkscape:persp3d" inkscape:vp_x="0 : 240.959 : 1" inkscape:vp_y="0 : 1000 : 0">
		</inkscape:perspective>
</defs>
<sodipodi:namedview  id="base" inkscape:window-height="850" inkscape:window-width="1440" inkscape:pageshadow="2" inkscape:pageopacity="0.0" inkscape:window-x="-8" inkscape:window-y="-8" inkscape:current-layer="Layer_1" inkscape:zoom="0.95866932" gridtolerance="10.0" objecttolerance="10.0" guidetolerance="10.0" pagecolor="#ffffff" borderopacity="1.0" showgrid="false" bordercolor="#666666" inkscape:cx="250" inkscape:cy="240.959">
	</sodipodi:namedview>
<g id="g3">
	<path id="path5" fill="#FFFFFF" d="M146.897,282.114l0.017,0.095c2.179-2.171,46.474-46.321,92.9-55.813l36.211-27.981
		C189.5,203.481,149.118,277.938,146.897,282.114"/>
	<path id="path7" fill="#FFFFFF" d="M480.743,222.167c0-10.97-14.49-18.434-26.776-28.327c-48.562-5.434-61.831-17.13-61.831-24.602
		c0-2.93,2.473-3.613,4.826-3.613c11.023,0,25.564,7.805,33.834,16.655c-4.801-12.7-33.962-27.673-52.868-27.673
		c-3.567,0-8.809,1.123-8.809,6.817c0,11.97,17.984,27.147,64.271,30.855c24.776,5.892,50.571,19.729,45.623,37.605
		C479.914,228.074,480.743,225.537,480.743,222.167"/>
	<path id="path9" fill="#FFFFFF" d="M389.701,222.077l18.011,6.386c3.332-1.431,6.938-3.156,7.243-3.635
		c0.231-0.457,0.231-0.851-0.546-1.551c-0.529-0.474-8.595-3.532-13.604-5.344L389.701,222.077z"/>
	<path id="path11" fill="#FFFFFF" d="M404.908,216.378c4.768,1.932,11.438,4.566,11.979,4.699c0.753,0.128,2,0.176,2.771,0
		c0.581-0.175,4.523-2.161,7.432-3.622c-2.836-1.393-8.423-4.016-12.243-4.016C411.257,213.439,404.908,216.378,404.908,216.378"/>
	<path id="path13" fill="#FFFFFF" d="M422.713,222.594c-0.169,0.428-0.032,0.637,0.572,1.111c0.703,0.525,10.082,5.353,10.809,5.45
		c0.734,0.077,1.368,0.077,2.104-0.098c0.526-0.12,3.769-2.196,5.972-3.708l-12.479-6.673
		C426.455,220.274,423.021,222.167,422.713,222.594"/>
	<path id="path15" fill="#FFFFFF" d="M431.6,232.518c0.214-0.461,0.323-0.777,0.204-1.214c-0.61-0.684-9.893-5.468-10.875-5.643
		c-1.078-0.133-1.667-0.133-2.612,0.295c-0.787,0.35-5.503,2.986-7.188,3.93l14.489,6.604
		C428.354,234.803,431.31,232.859,431.6,232.518"/>
	<path id="path17" fill="#FFFFFF" d="M449.37,237.622c0.325,0.077,1.264-0.184,2.264-0.533c0.54-0.214,2.667-1.944,4.11-3.145
		l-11.174-7.121c-2.679,1.671-5.503,3.622-5.813,4.007c0,0.09,0.035,0.351,0.648,1.166L449.37,237.622z"/>
	<path id="path19" fill="#FFFFFF" d="M453.967,238.733c-0.325,0.649-0.355,0.91-0.188,1.119c0.368,0.342,6.171,4.199,10.1,6.835
		l4.538-4.541l-10.313-6.663C456.172,236.837,454.173,238.383,453.967,238.733"/>
	<path id="path21" fill="#FFFFFF" d="M447.609,240.63c0.188-0.333,0.087-0.867-0.332-1.252c-0.581-0.551-9.512-5.391-10.188-5.477
		c-0.759-0.175-2.127,0.043-2.858,0.252c-0.367,0.099-2.99,1.91-5.442,3.665l13.679,6.396
		C444.834,242.667,447.38,240.988,447.609,240.63"/>
	<path id="path23" fill="#FFFFFF" d="M449.979,242.449c-0.367,0.115-2.965,2.111-4.859,3.589l12.354,7.687l4.635-5.055
		c-3.763-2.605-9.229-6.306-9.689-6.521C451.933,242.016,450.602,242.23,449.979,242.449"/>
	<path id="path25" fill="#FFFFFF" d="M352.706,224.752c66.709,17.697,95.161,40.83,95.161,40.83l7.104-7.997
		c-3.341-2.442-27.921-19.446-76.038-35.213c14.338-5.703,31.684-12.389,36.382-12.389c10.646,0,32.479,13.858,55.97,29.232
		l5.354-6.049c-20.541-14.161-44.647-30.95-61.993-30.95C400.576,202.217,380.261,210.928,352.706,224.752"/>
	<path id="path27" fill="#A9AAAC" d="M290.542,368.876c77.781,0,141.271-29.783,141.271-29.783l33.996,76.005
		c0,0-72.708,55.738-192.879,55.738c-234.938,0-261.562-185.74-261.562-185.74s25.878-89.438,113.538-137.785l0.858,3.06
		l10.385,1.174C103.025,166.863,50.92,203.17,19.941,285.958c0,0,28.519,176.54,252.989,176.54
		c109.815,0,182.404-50.289,182.404-50.289l-27.718-62.01c0,0-59.729,26.998-137.075,26.998
		c-107.027,0-137.323-63.967-143.633-94.997l-0.017-0.077c-0.97-4.932-1.41-9.064-1.41-11.919c0-19.958,3.878-30.22,3.878-30.22
		L98.02,260.652l7.313,7.524c0,0-7.714,2.237-33.192,13.757l17.647-31.887l-13.379-1.043l49.528-38.109l-17.208-5.874l30.445-5.053
		l-6.1-15.145l17.045,8.877l13.106-40.941l11.914-11.961l6.327-6.31l-6.203-4.19c20.714-7.977,39.72-15.661,42.292-18.853
		c10.342-11.229,14.55-75.94,14.55-98.163c0,0,13.499-2.161,23.944-2.161c10.901,0,32.697,0,40.096,21.761
		c9.278,30.13,15.604,54.872,20.538,65.223c12.351,25.764,123.988,35.738,144.193,90.427c9.715,6.997,27.981,19.249,27.981,31.557
		c0,13.08-6.203,18.873-6.203,18.873l-33.825,38.103c0,0-21.299-22.58-95.188-43.423l-109.075,54.462
		c-21.077,5.674-87.078,1.701-87.078,1.701S174.66,368.876,290.542,368.876 M100.594,301.491l-9.21,35.19l20.881-9.81l11.051,39.284
		l23.461-0.311l0.509,25.674c0,0,38.758,24.182,98.231,30.478c77.85,8.297,163.51-25.288,163.51-25.288
		s-71.836,27.364-152.074,20.196c-60.733-5.436-96.596-30.298-96.596-30.298l-6.327-28.448l-19.052,2.469L119.035,320.1
		l-16.587,4.93l7.979-27.631l-38.703-7.176l19.053-12.475l22.09-7.975l-3.674-7.994l28.314-9.407
		c-0.598,4.871-1.068,10.8-1.068,17.831c0,31.723,30.954,116.064,154.103,116.064c62.411,0,113.033-16.925,132.42-24.436
		l20.94,46.836c-19.604,11.569-83.522,44.752-170.976,44.752c-202.658,0-239.387-145.594-243.646-166.604
		c35.145-91.727,95.788-122.846,124.012-132.688l-9.342,29.194l-23.465-13.358l13.247,26.721l-38.058,7.339l23.358,9.231
		l-53.628,39.936l12.807-0.342l-9.543,19.153l-8.172,24.572L100.594,301.491z M115.704,97.89l56.525,39.079l-11.611,15.609
		l-28.71-7.078L115.704,97.89z M248.447,298.596l106.369-53.045c72.769,20.424,94.355,48.047,94.355,48.047l41.676-47.145
		c2.281-2.401,9.149-10.902,9.149-26.362c0-16.763-17.479-29.702-29.714-38.502c-20.719-54.438-135.479-70.183-143.955-89.133
		c-2.911-6.527-19.678-63.151-19.678-63.151C296.676,0,267.154,0,256.052,0c-11.163,0-35.093,3.75-35.093,3.75
		c0,40.84-5.537,90.646-11.304,99.71c0,0-20.706,10.885-45.064,19.634L106.554,83.95l15.254,52.702
		C23.875,190.486,0,284.275,0,284.275s25.187,197.643,272.93,197.643c130.974,0,206.584-63.318,206.584-63.318l-42.188-94.365
		c0,0-64.438,33.502-146.782,33.502c-75.949,0-105.634-35.396-116.477-55.979C238.345,303.652,248.447,298.596,248.447,298.596"/>
	<path id="path29" fill="#B0B0B3" d="M192.281,191.857l21.18,12.347l-36.114-4.357L192.281,191.857z M195.754,185.779
		l-27.822,15.527l55.337,7.473L195.754,185.779z"/>
	<path id="path31" fill="#B0B0B3" d="M155.479,226.05l-39.378,6.126l43.497-29.476L155.479,226.05z M159.862,229.288l4.866-34.312
		l-64.27,43.244L159.862,229.288z"/>
	<path id="path33" fill="#B0B0B3" d="M174.562,161.779l29.425-16.587l-25.354,34.354L174.562,161.779z M214.021,134.191
		l-46.457,25.986l12.081,28.878L214.021,134.191z"/>
	<polygon id="polygon35" fill="#1F427C" points="155.479,226.046 159.602,202.695 116.101,232.171 	"/>
	<polygon id="polygon37" fill="#1F427C" points="177.342,199.847 213.461,204.204 192.277,191.857 	"/>
	<polygon id="polygon39" fill="#1F427C" points="203.986,145.192 174.566,161.779 178.632,179.547 	"/>
	<path id="path41" fill="#1F427C" d="M422.962,361.836c-19.387,7.51-70.017,24.436-132.42,24.436
		c-123.145,0-154.103-84.336-154.103-116.064c0-7.031,0.47-12.96,1.063-17.831l-28.31,9.407l3.674,7.994l-22.09,7.975
		l-19.044,12.475l38.694,7.178l-7.979,27.631l16.587-4.93l15.943,40.528l19.052-2.469l6.327,28.45c0,0,35.862,24.86,96.596,30.296
		c80.238,7.168,152.074-20.196,152.074-20.196s-85.66,33.585-163.51,25.288c-59.473-6.296-98.231-30.466-98.231-30.466
		l-0.509-25.686l-23.461,0.311l-11.051-39.284l-20.885,9.81l9.214-35.19l-40.096-4.921l8.181-24.563l9.534-19.154l-12.807,0.332
		l53.628-39.924l-23.358-9.231l38.067-7.33l-13.248-26.729l23.457,13.358l9.342-29.186c-28.224,9.843-88.872,40.954-124.012,132.68
		C33.54,307.836,70.265,453.43,272.923,453.43c87.454,0,151.376-33.183,170.979-44.752L422.962,361.836z"/>
	<polygon id="polygon43" fill="#1F427C" points="160.622,152.578 172.233,136.964 115.699,97.89 131.911,145.5 	"/>
	<path id="path45" fill="#FFFFFF" d="M294.438,113.251c0,0-15.668-6.596-19.949-11.957c-4.225-5.348-9.189-58.661-9.189-58.661
		s-0.865,54.437-3.966,59.264c-3.175,4.849-18.757,13.815-18.757,13.815s17.285-5.652,25.793-6.117
		C274.596,109.201,294.438,113.251,294.438,113.251"/>
	<path id="path47" fill="#1F427C" d="M463.877,246.684c-3.929-2.632-9.739-6.494-10.1-6.823c-0.169-0.222-0.139-0.482,0.188-1.132
		c0.206-0.35,2.205-1.888,4.146-3.233l10.297,6.646L463.877,246.684z M457.47,253.725l-12.354-7.688
		c1.88-1.479,4.492-3.459,4.858-3.584c0.624-0.22,1.955-0.438,2.438-0.31c0.462,0.219,5.93,3.922,9.688,6.527L457.47,253.725z
		 M428.788,237.818c2.452-1.755,5.064-3.575,5.442-3.665c0.731-0.209,2.103-0.427,2.854-0.252c0.683,0.086,9.619,4.926,10.184,5.477
		c0.43,0.385,0.528,0.919,0.343,1.252c-0.229,0.35-2.775,2.037-5.146,3.585L428.788,237.818z M411.129,229.886
		c1.684-0.943,6.397-3.58,7.188-3.93c0.945-0.428,1.534-0.428,2.612-0.295c0.982,0.175,10.265,4.959,10.875,5.643
		c0.119,0.437,0.01,0.753-0.204,1.214c-0.29,0.342-3.246,2.285-5.979,3.973L411.129,229.886z M389.701,222.081l11.104-4.147
		c5.009,1.812,13.08,4.865,13.604,5.34c0.787,0.7,0.787,1.102,0.546,1.555c-0.309,0.482-3.911,2.204-7.243,3.64L389.701,222.081z
		 M414.836,213.439c3.82,0,9.416,2.623,12.252,4.016c-2.896,1.47-6.851,3.447-7.432,3.622c-0.771,0.185-2.008,0.128-2.777,0
		c-0.538-0.133-7.203-2.759-11.971-4.699C404.908,216.378,411.248,213.439,414.836,213.439 M442.176,225.354
		c-2.205,1.513-5.45,3.589-5.979,3.708c-0.734,0.175-1.368,0.175-2.104,0.099c-0.732-0.099-10.098-4.935-10.8-5.451
		c-0.613-0.474-0.75-0.684-0.572-1.111c0.302-0.427,3.733-2.328,6.964-3.93L442.176,225.354z M455.744,233.944
		c-1.438,1.209-3.563,2.931-4.104,3.14c-1.009,0.359-1.944,0.615-2.271,0.534l-9.973-5.622c-0.604-0.815-0.633-1.076-0.633-1.166
		c0.303-0.385,3.118-2.336,5.806-4.007L455.744,233.944z M460.879,188.53c-20.205-54.68-131.846-64.663-144.193-90.427
		c-4.938-10.351-11.26-35.094-20.539-65.215c-7.396-21.756-29.19-21.756-40.095-21.756c-10.45,0-23.948,2.161-23.948,2.161
		c0,22.223-4.199,86.924-14.537,98.159c-2.572,3.187-21.586,10.876-42.292,18.855l6.194,4.178l-6.327,6.31
		c20.578-10.838,37.819-14.626,48.067-23.218c15.195-15.326,17.19-88.704,17.19-97.035c0,0,30.062-4.101,41.773,4.926
		c10.667,8.146,21.254,68.017,27.646,77.342c23.052,33.662,125.509,37.469,144.147,91.029c12.286,9.885,26.776,17.357,26.776,28.331
		c0,3.357-0.829,5.903-1.729,7.715c-1.093,2.213-2.362,3.281-2.362,3.281l-5.375,6.045c-23.479-15.361-45.315-29.22-55.973-29.22
		c-4.688,0-22.032,6.681-36.379,12.38c48.126,15.763,72.715,32.77,76.047,35.213l-7.099,7.997c0,0-28.452-23.133-95.161-40.83
		c-28.712,14.375-65.34,34.271-111.035,55.519c-14.542,4.127-73.707,1.631-73.707,1.631l71.844-55.501
		c-46.431,9.491-90.726,53.642-92.905,55.813c6.31,31.015,36.606,94.997,143.633,94.997c77.339,0,137.075-27.018,137.075-27.018
		l27.718,62.021c0,0-72.589,50.289-182.409,50.289c-224.465,0-252.989-176.54-252.989-176.54
		c30.979-82.783,83.088-119.091,116.22-134.409l-10.385-1.171l-0.859-3.063c-87.67,48.335-113.541,137.78-113.541,137.78
		s26.613,185.731,261.554,185.731c120.175,0,192.883-55.73,192.883-55.73l-33.995-76.005c0,0-63.487,29.783-141.271,29.783
		c-115.882,0-133.047-79.081-133.047-79.081s66,3.974,87.086-1.69l109.065-54.465c73.887,20.836,95.177,43.426,95.177,43.426
		l33.834-38.104c0,0,6.203-5.793,6.203-18.874C488.86,207.787,470.594,195.527,460.879,188.53"/>
	<path id="path49" fill="#152F55" d="M268.363,109.599c-8.506,0.461-25.785,6.113-25.785,6.113s15.574-8.967,18.748-13.812
		c3.099-4.831,3.966-59.268,3.966-59.268s4.968,53.317,9.192,58.661c4.279,5.366,19.953,11.962,19.953,11.962
		S274.592,109.197,268.363,109.599 M167.936,201.304l27.818-15.529l27.515,23L167.936,201.304z M214.021,134.191l-34.372,54.864
		l-12.094-28.882L214.021,134.191z M159.857,229.288l-59.404,8.937l64.27-43.257L159.857,229.288z M433.395,192.285
		c-46.291-3.713-64.272-18.898-64.272-30.86c0-5.694,5.238-6.822,8.809-6.822c18.906,0,48.067,14.969,52.868,27.682
		c-8.27-8.854-22.811-16.659-33.834-16.659c-2.354,0-4.814,0.684-4.814,3.613c0,7.472,13.261,19.168,61.819,24.602
		c-18.642-53.561-121.099-57.367-144.147-91.029c-6.397-9.33-16.979-69.195-27.652-77.342c-11.703-9.026-41.765-4.926-41.765-4.926
		c0,8.331-1.995,81.709-17.199,97.035c-10.244,8.592-27.481,12.389-48.059,23.218l-11.914,11.962l-13.106,40.95l-17.045-8.89
		l6.1,15.147l-30.445,5.054l17.208,5.883l-49.528,38.109l13.379,1.038l-17.647,31.886c25.478-11.522,33.192-13.765,33.192-13.765
		l-7.313-7.51l51.339-20.681c0,0-3.878,10.274-3.878,30.215c0,2.854,0.44,7.006,1.41,11.918
		c2.23-4.178,42.607-78.632,129.134-83.698L167.97,281.9c0,0,59.166,2.512,73.707-1.631c45.695-21.24,82.323-41.147,111.029-55.521
		c27.546-13.824,47.861-22.539,61.94-22.539c17.346,0,41.464,16.797,62.005,30.954c0,0,1.271-1.068,2.362-3.281
		C483.965,212.013,458.17,198.163,433.395,192.285"/>
</g>
<path id="path2431" fill="#FFFFFF" d="M146.897,282.114l0.017,0.095c2.179-2.171,46.474-46.321,92.9-55.813l36.211-27.981
	C189.5,203.481,149.118,277.938,146.897,282.114"/>
<path id="path2433" fill="#FFFFFF" d="M480.743,222.167c0-10.97-14.49-18.434-26.776-28.327
	c-48.562-5.434-61.831-17.13-61.831-24.602c0-2.93,2.473-3.613,4.826-3.613c11.023,0,25.564,7.805,33.834,16.655
	c-4.801-12.7-33.962-27.673-52.868-27.673c-3.567,0-8.809,1.123-8.809,6.817c0,11.97,17.984,27.147,64.271,30.855
	c24.776,5.892,50.571,19.729,45.623,37.605C479.914,228.074,480.743,225.537,480.743,222.167"/>
<path id="path2435" fill="#FFFFFF" d="M389.701,222.077l18.011,6.386c3.332-1.431,6.938-3.156,7.243-3.635
	c0.231-0.457,0.231-0.851-0.546-1.551c-0.529-0.474-8.595-3.532-13.604-5.344L389.701,222.077z"/>
<path id="path2437" fill="#FFFFFF" d="M404.908,216.378c4.768,1.932,11.438,4.566,11.979,4.699c0.753,0.128,2,0.176,2.771,0
	c0.581-0.175,4.523-2.161,7.432-3.622c-2.836-1.393-8.423-4.016-12.243-4.016C411.257,213.439,404.908,216.378,404.908,216.378"/>
<path id="path2439" fill="#FFFFFF" d="M422.713,222.594c-0.169,0.428-0.032,0.637,0.572,1.111c0.703,0.525,10.082,5.353,10.809,5.45
	c0.734,0.077,1.368,0.077,2.104-0.098c0.526-0.12,3.769-2.196,5.972-3.708l-12.479-6.673
	C426.455,220.274,423.021,222.167,422.713,222.594"/>
<path id="path2441" fill="#FFFFFF" d="M431.6,232.518c0.214-0.461,0.323-0.777,0.204-1.214c-0.61-0.684-9.893-5.468-10.875-5.643
	c-1.078-0.133-1.667-0.133-2.612,0.295c-0.787,0.35-5.503,2.986-7.188,3.93l14.489,6.604
	C428.354,234.803,431.31,232.859,431.6,232.518"/>
<path id="path2443" fill="#FFFFFF" d="M449.37,237.622c0.325,0.077,1.264-0.184,2.264-0.533c0.54-0.214,2.667-1.944,4.11-3.145
	l-11.174-7.121c-2.679,1.671-5.503,3.622-5.813,4.007c0,0.09,0.035,0.351,0.648,1.166L449.37,237.622z"/>
<path id="path2445" fill="#FFFFFF" d="M453.967,238.733c-0.325,0.649-0.355,0.91-0.188,1.119c0.368,0.342,6.171,4.199,10.1,6.835
	l4.538-4.541l-10.313-6.663C456.172,236.837,454.173,238.383,453.967,238.733"/>
<path id="path2447" fill="#FFFFFF" d="M447.609,240.63c0.188-0.333,0.087-0.867-0.332-1.252c-0.581-0.551-9.512-5.391-10.188-5.477
	c-0.759-0.175-2.127,0.043-2.858,0.252c-0.367,0.099-2.99,1.91-5.442,3.665l13.679,6.396
	C444.834,242.667,447.38,240.988,447.609,240.63"/>
<path id="path2449" fill="#FFFFFF" d="M449.979,242.449c-0.367,0.115-2.965,2.111-4.859,3.589l12.354,7.687l4.635-5.055
	c-3.763-2.605-9.229-6.306-9.689-6.521C451.933,242.016,450.602,242.23,449.979,242.449"/>
<path id="path2451" fill="#FFFFFF" d="M352.706,224.752c66.709,17.697,95.161,40.83,95.161,40.83l7.104-7.997
	c-3.341-2.442-27.921-19.446-76.038-35.213c14.338-5.703,31.684-12.389,36.382-12.389c10.646,0,32.479,13.858,55.97,29.232
	l5.354-6.049c-20.541-14.161-44.647-30.95-61.993-30.95C400.576,202.217,380.261,210.928,352.706,224.752"/>
<path id="path2453" fill="#989A9D" d="M290.542,368.876c77.781,0,141.271-29.783,141.271-29.783l33.996,76.005
	c0,0-72.708,55.738-192.879,55.738c-234.938,0-261.562-185.74-261.562-185.74s25.878-89.438,113.538-137.785l0.858,3.06
	l10.385,1.174C103.025,166.863,50.92,203.17,19.941,285.958c0,0,28.519,176.54,252.989,176.54
	c109.815,0,182.404-50.289,182.404-50.289l-27.718-62.01c0,0-59.729,26.998-137.075,26.998
	c-107.027,0-137.323-63.967-143.633-94.997l-0.017-0.077c-0.97-4.932-1.41-9.064-1.41-11.919c0-19.958,3.878-30.22,3.878-30.22
	L98.02,260.652l7.313,7.524c0,0-7.714,2.237-33.192,13.757l17.647-31.887l-13.379-1.043l49.528-38.109l-17.208-5.874l30.445-5.053
	l-6.1-15.145l17.045,8.877l13.106-40.941l11.914-11.961l6.327-6.31l-6.203-4.19c20.714-7.977,39.72-15.661,42.292-18.853
	c10.342-11.229,14.55-75.94,14.55-98.163c0,0,13.499-2.161,23.944-2.161c10.901,0,32.697,0,40.096,21.761
	c9.278,30.13,15.604,54.872,20.538,65.223c12.351,25.764,123.988,35.738,144.193,90.427c9.715,6.997,27.981,19.249,27.981,31.557
	c0,13.08-6.203,18.873-6.203,18.873l-33.825,38.103c0,0-21.299-22.58-95.188-43.423l-109.075,54.462
	c-21.077,5.674-87.078,1.701-87.078,1.701S174.66,368.876,290.542,368.876 M100.594,301.491l-9.21,35.19l20.881-9.81l11.051,39.284
	l23.461-0.311l0.509,25.674c0,0,38.758,24.182,98.231,30.478c77.85,8.297,163.51-25.288,163.51-25.288
	s-71.836,27.364-152.074,20.196c-60.733-5.436-96.596-30.298-96.596-30.298l-6.327-28.448l-19.052,2.469L119.035,320.1l-16.587,4.93
	l7.979-27.631l-38.703-7.176l19.053-12.475l22.09-7.975l-3.674-7.994l28.314-9.407c-0.598,4.871-1.068,10.8-1.068,17.831
	c0,31.723,30.954,116.064,154.103,116.064c62.411,0,113.033-16.925,132.42-24.436l20.94,46.836
	c-19.604,11.569-83.522,44.752-170.976,44.752c-202.658,0-239.387-145.594-243.646-166.604
	c35.145-91.727,95.788-122.846,124.012-132.688l-9.342,29.194l-23.465-13.358l13.247,26.721l-38.058,7.339l23.358,9.231
	l-53.628,39.936l12.807-0.342l-9.543,19.153l-8.172,24.572L100.594,301.491z M115.704,97.89l56.525,39.079l-11.611,15.609
	l-28.71-7.078L115.704,97.89z M248.447,298.596l106.369-53.045c72.769,20.424,94.355,48.047,94.355,48.047l41.676-47.145
	c2.281-2.401,9.149-10.902,9.149-26.362c0-16.763-17.479-29.702-29.714-38.502c-20.719-54.438-135.479-70.183-143.955-89.133
	c-2.911-6.527-19.678-63.151-19.678-63.151C296.676,0,267.154,0,256.052,0c-11.163,0-35.093,3.75-35.093,3.75
	c0,40.84-5.537,90.646-11.304,99.71c0,0-20.706,10.885-45.064,19.634L106.554,83.95l15.254,52.702
	C23.875,190.486,0,284.275,0,284.275s25.187,197.643,272.93,197.643c130.974,0,206.584-63.318,206.584-63.318l-42.188-94.365
	c0,0-64.438,33.502-146.782,33.502c-75.949,0-105.634-35.396-116.477-55.979C238.345,303.652,248.447,298.596,248.447,298.596"/>
<path id="path2455" fill="#989A9D" d="M192.281,191.857l21.18,12.347l-36.114-4.357L192.281,191.857z M195.754,185.779
	l-27.822,15.527l55.337,7.473L195.754,185.779z"/>
<path id="path2457" fill="#989A9D" d="M155.479,226.05l-39.378,6.126l43.497-29.476L155.479,226.05z M159.862,229.288l4.866-34.312
	l-64.27,43.244L159.862,229.288z"/>
<path id="path2459" fill="#989A9D" d="M174.562,161.779l29.425-16.587l-25.354,34.354L174.562,161.779z M214.021,134.191
	l-46.457,25.986l12.081,28.878L214.021,134.191z"/>
<polygon id="polygon2461" fill="#FFFFFF" points="155.479,226.046 159.602,202.695 116.101,232.171 "/>
<polygon id="polygon2463" fill="#FFFFFF" points="177.342,199.847 213.461,204.204 192.277,191.857 "/>
<polygon id="polygon2465" fill="#FFFFFF" points="203.986,145.192 174.566,161.779 178.632,179.547 "/>
<path id="path2467" fill="#FFFFFF" d="M422.962,361.836c-19.387,7.51-70.017,24.436-132.42,24.436
	c-123.145,0-154.103-84.336-154.103-116.064c0-7.031,0.47-12.96,1.063-17.831l-28.31,9.407l3.674,7.994l-22.09,7.975l-19.044,12.475
	l38.694,7.178l-7.979,27.631l16.587-4.93l15.943,40.528l19.052-2.469l6.327,28.45c0,0,35.862,24.86,96.596,30.296
	c80.238,7.168,152.074-20.196,152.074-20.196s-85.66,33.585-163.51,25.288c-59.473-6.296-98.231-30.466-98.231-30.466l-0.509-25.686
	l-23.461,0.311l-11.051-39.284l-20.885,9.81l9.214-35.19l-40.096-4.921l8.181-24.563l9.534-19.154l-12.807,0.332l53.628-39.924
	l-23.358-9.231l38.067-7.33l-13.248-26.729l23.457,13.358l9.342-29.186c-28.224,9.843-88.872,40.954-124.012,132.68
	C33.54,307.836,70.265,453.43,272.923,453.43c87.454,0,151.376-33.183,170.979-44.752L422.962,361.836z"/>
<polygon id="polygon2469" fill="#FFFFFF" points="160.622,152.578 172.233,136.964 115.699,97.89 131.911,145.5 "/>
<path id="path2471" fill="#FFFFFF" d="M294.438,113.251c0,0-15.668-6.596-19.949-11.957c-4.225-5.348-9.189-58.661-9.189-58.661
	s-0.865,54.437-3.966,59.264c-3.175,4.849-18.757,13.815-18.757,13.815s17.285-5.652,25.793-6.117
	C274.596,109.201,294.438,113.251,294.438,113.251"/>
<path id="path2473" fill="#00427B" d="M463.877,246.684c-3.929-2.632-9.739-6.494-10.1-6.823c-0.169-0.222-0.139-0.482,0.188-1.132
	c0.206-0.35,2.205-1.888,4.146-3.233l10.297,6.646L463.877,246.684z M457.47,253.725l-12.354-7.688
	c1.88-1.479,4.492-3.459,4.858-3.584c0.624-0.22,1.955-0.438,2.438-0.31c0.462,0.219,5.93,3.922,9.688,6.527L457.47,253.725z
	 M428.788,237.818c2.452-1.755,5.064-3.575,5.442-3.665c0.731-0.209,2.103-0.427,2.854-0.252c0.683,0.086,9.619,4.926,10.184,5.477
	c0.43,0.385,0.528,0.919,0.343,1.252c-0.229,0.35-2.775,2.037-5.146,3.585L428.788,237.818z M411.129,229.886
	c1.684-0.943,6.397-3.58,7.188-3.93c0.945-0.428,1.534-0.428,2.612-0.295c0.982,0.175,10.265,4.959,10.875,5.643
	c0.119,0.437,0.01,0.753-0.204,1.214c-0.29,0.342-3.246,2.285-5.979,3.973L411.129,229.886z M389.701,222.081l11.104-4.147
	c5.009,1.812,13.08,4.865,13.604,5.34c0.787,0.7,0.787,1.102,0.546,1.555c-0.309,0.482-3.911,2.204-7.243,3.64L389.701,222.081z
	 M414.836,213.439c3.82,0,9.416,2.623,12.252,4.016c-2.896,1.47-6.851,3.447-7.432,3.622c-0.771,0.185-2.008,0.128-2.777,0
	c-0.538-0.133-7.203-2.759-11.971-4.699C404.908,216.378,411.248,213.439,414.836,213.439 M442.176,225.354
	c-2.205,1.513-5.45,3.589-5.979,3.708c-0.734,0.175-1.368,0.175-2.104,0.099c-0.732-0.099-10.098-4.935-10.8-5.451
	c-0.613-0.474-0.75-0.684-0.572-1.111c0.302-0.427,3.733-2.328,6.964-3.93L442.176,225.354z M455.744,233.944
	c-1.438,1.209-3.563,2.931-4.104,3.14c-1.009,0.359-1.944,0.615-2.271,0.534l-9.973-5.622c-0.604-0.815-0.633-1.076-0.633-1.166
	c0.303-0.385,3.118-2.336,5.806-4.007L455.744,233.944z M460.879,188.53c-20.205-54.68-131.846-64.663-144.193-90.427
	c-4.938-10.351-11.26-35.094-20.539-65.215c-7.396-21.756-29.19-21.756-40.095-21.756c-10.45,0-23.948,2.161-23.948,2.161
	c0,22.223-4.199,86.924-14.537,98.159c-2.572,3.187-21.586,10.876-42.292,18.855l6.194,4.178l-6.327,6.31
	c20.578-10.838,37.819-14.626,48.067-23.218c15.195-15.326,17.19-88.704,17.19-97.035c0,0,30.062-4.101,41.773,4.926
	c10.667,8.146,21.254,68.017,27.646,77.342c23.052,33.662,125.509,37.469,144.147,91.029c12.286,9.885,26.776,17.357,26.776,28.331
	c0,3.357-0.829,5.903-1.729,7.715c-1.093,2.213-2.362,3.281-2.362,3.281l-5.375,6.045c-23.479-15.361-45.315-29.22-55.973-29.22
	c-4.688,0-22.032,6.681-36.379,12.38c48.126,15.763,72.715,32.77,76.047,35.213l-7.099,7.997c0,0-28.452-23.133-95.161-40.83
	c-28.712,14.375-65.34,34.271-111.035,55.519c-14.542,4.127-73.707,1.631-73.707,1.631l71.844-55.501
	c-46.431,9.491-90.726,53.642-92.905,55.813c6.31,31.015,36.606,94.997,143.633,94.997c77.339,0,137.075-27.018,137.075-27.018
	l27.718,62.021c0,0-72.589,50.289-182.409,50.289c-224.465,0-252.989-176.54-252.989-176.54
	c30.979-82.783,83.088-119.091,116.22-134.409l-10.385-1.171l-0.859-3.063c-87.67,48.335-113.541,137.78-113.541,137.78
	s26.613,185.731,261.554,185.731c120.175,0,192.883-55.73,192.883-55.73l-33.995-76.005c0,0-63.487,29.783-141.271,29.783
	c-115.882,0-133.047-79.081-133.047-79.081s66,3.974,87.086-1.69l109.065-54.465c73.887,20.836,95.177,43.426,95.177,43.426
	l33.834-38.104c0,0,6.203-5.793,6.203-18.874C488.86,207.787,470.594,195.527,460.879,188.53"/>
<path id="path2475" fill="#003152" d="M268.363,109.599c-8.506,0.461-25.785,6.113-25.785,6.113s15.574-8.967,18.748-13.812
	c3.099-4.831,3.966-59.268,3.966-59.268s4.968,53.317,9.192,58.661c4.279,5.366,19.953,11.962,19.953,11.962
	S274.592,109.197,268.363,109.599 M167.936,201.304l27.818-15.529l27.515,23L167.936,201.304z M214.021,134.191l-34.372,54.864
	l-12.094-28.882L214.021,134.191z M159.857,229.288l-59.404,8.937l64.27-43.257L159.857,229.288z M433.395,192.285
	c-46.291-3.713-64.272-18.898-64.272-30.86c0-5.694,5.238-6.822,8.809-6.822c18.906,0,48.067,14.969,52.868,27.682
	c-8.27-8.854-22.811-16.659-33.834-16.659c-2.354,0-4.814,0.684-4.814,3.613c0,7.472,13.261,19.168,61.819,24.602
	c-18.642-53.561-121.099-57.367-144.147-91.029c-6.397-9.33-16.979-69.195-27.652-77.342c-11.703-9.026-41.765-4.926-41.765-4.926
	c0,8.331-1.995,81.709-17.199,97.035c-10.244,8.592-27.481,12.389-48.059,23.218l-11.914,11.962l-13.106,40.95l-17.045-8.89
	l6.1,15.147l-30.445,5.054l17.208,5.883l-49.528,38.109l13.379,1.038l-17.647,31.886c25.478-11.522,33.192-13.765,33.192-13.765
	l-7.313-7.51l51.339-20.681c0,0-3.878,10.274-3.878,30.215c0,2.854,0.44,7.006,1.41,11.918c2.23-4.178,42.607-78.632,129.134-83.698
	L167.97,281.9c0,0,59.166,2.512,73.707-1.631c45.695-21.24,82.323-41.147,111.029-55.521c27.546-13.824,47.861-22.539,61.94-22.539
	c17.346,0,41.464,16.797,62.005,30.954c0,0,1.271-1.068,2.362-3.281C483.965,212.013,458.17,198.163,433.395,192.285"/>
</svg>
