<svg id="Layer_1" data-name="Layer 1" xmlns="http://www.w3.org/2000/svg" viewBox="0 0 129.13196 82.84204"><title>Untitled-23</title><path d="M22.425,37.485c-.159,0-3.873-.009-5.435.071C8.978,37.983,3.756,40.985.564,47.003A5.34343,5.34343,0,0,0,.72,52.068a6.07863,6.07863,0,0,0,5.416,2.869c2.687.087,4.224.061,7.172.001,2.94-.062,5.463-1.783,6.82-2.705l.48-.318c.035.064.068.127.104.189a6.16742,6.16742,0,0,0,5.438,2.834l2.751.001,1.304-.001a5.405,5.405,0,0,0,1.139-.134h4.663c-1.088,2.824-3.137,8.254-3.137,8.254h7.899s1.844-4.98,3.105-8.228l24.161-.026q-.29851.747-.4,1.024a17.63226,17.63226,0,0,0-1.256,6.168c0,3.214,1.191,5.761,2.755,8.637,1.333,2.441,5.912,9.485,6.107,9.785l1.579,2.424,7.254-10.536H95.828l6.36-7.836H87.392l-4.66,5.725a88.144,88.144,0,0,1-8.423-7.007,2.68785,2.68785,0,0,1-.554-1.858,9.4954,9.4954,0,0,1,.557-2.927c.238-.7,1.595-4.065,3.541-8.824a6.24011,6.24011,0,0,0,.863,2.533,6.15973,6.15973,0,0,0,5.441,2.834l2.747.001,29.971-.009c3.924-.071,6.287-1.401,7.435-4.185a6.70949,6.70949,0,0,0,.536-2.575,5.272,5.272,0,0,0-.831-2.893,5.02682,5.02682,0,0,0-.732-.872c.525.002,1.024.004,1.458.007l1.248.006,3.143-6.851-2.995-.022c-.414-.00305-10.193-.073-12.912.001a10.4334,10.4334,0,0,0-5.303,1.325l7.541-18.212h-7.96L99.241,40.641a4.80835,4.80835,0,0,0-.25-.427c-.794-1.19495-2.509-2.624-6.161-2.649-3.555-.027-7.867.009-10.047.032C89.275,21.872,97.13,2.988,97.256,2.686L98.386,0l-7.55.112-.468,1.125c-.547,1.309-8.761,21.023-15.148,36.43H55.194a17.27892,17.27892,0,0,0-13.48,6.09c.015-.19.027-.38.027-.569a5.21164,5.21164,0,0,0-.846-2.921c-.779-1.171-2.464-2.574-6.072-2.6Z" fill="#fff"/><path d="M22.44316,39.43756s-3.799-.00995-5.327.072c-7.71.407-12.089,3.294-14.804,8.415-.899,1.697-.179,4.95294,3.921,5.085,2.641.086,4.103.063,7.062,0,2.891-.06,5.439-2.219,6.474-2.833l-3.231-1.358a6.4644,6.4644,0,0,1-3.41,1.203c-1.858.07-4.61.028-6.318-.049-1.226-.056-1.127-1.187-.676-1.916,1.976-3.178,4.641-5.328,9.852-5.466l4.956-.092,1.501-3.061" fill="#002d62"/><polygon points="60.933 52.877 64.681 52.877 68.234 44.315 64.479 44.315 60.933 52.877" fill="#002d62"/><polygon points="65.233 42.499 68.982 42.499 70.165 39.51 66.432 39.51 65.233 42.499" fill="#002d62"/><polygon points="100.023 52.877 112.552 22.631 108.783 22.631 96.275 52.877 100.023 52.877" fill="#002d62"/><path d="M113.40687,42.49854c1.57-.055,11.323,0,11.323,0l1.376-2.989s-10.127-.075-12.842,0c-2.714.075-4.85.633-6.126,2.989-1.187,2.194-.493,5.175,3.467,5.256,4.009.083,5.749-.098,7.169,0,1.42.097,1.583.814,1.323,1.364-.328.694-1.394.873-2.296.903-2.622.09-13.705,0-13.705,0l-1.206,2.989s11.233.069,14.932,0c3.697-.068,4.995-1.323,5.682-2.984,1.196-2.888-.464-5.19-3.317-5.26s-5.46.08905-7.76,0c-.789-.03094-1.259-.592-.86-1.362.264-.512,1.268-.853,2.84-.906" fill="#002d62"/><path d="M55.206,39.50958a16.14214,16.14214,0,0,0-15.018,10.048c-1.325,3.154-4.498,11.573-4.498,11.573h3.748s2.945-7.966,4.292-11.075a12.72991,12.72991,0,0,1,11.544-7.548l4.005-.009a66.98917,66.98917,0,0,1-2.527,6.225,3.63848,3.63848,0,0,1-2.963,1.298l-8.062.03-1.19,2.95795H53.96c3.369,0,4.972-.63794,5.994-2.842,1.111-2.397,4.389-10.659,4.389-10.659l-9.137.001" fill="#002d62"/><path d="M27.07836,49.98883c-1.422,0-1.85-.735-1.555-1.447.378-.915,1.25-1.213,3.353-1.277.786-.023,2.062-.012,3.755-.005.509.004,2.457-.34,2.457-.34s-.551,1.258-.694,1.668c-.353,1.029-2.41,1.363-3.638,1.401-1.05.029-2.126,0-3.678,0m-3.624-7.451s6.602-.03894,9.682-.04c2.841,0,3.588.469,3.051,1.765h-7.111c-3.936,0-5.854.881-7.014,3.224-.813,1.65-.073,5.486,4.129,5.523.955.009,2.842,0,4.034,0a5.35754,5.35754,0,0,0,2.755-.972l-.361.84h3.747s2.141-5.151,3.079-7.437c1.158-2.82.465-5.896-4.617-5.931-4.992-.038-9.932.05-9.932.05l-1.442,2.978" fill="#002d62"/><path d="M84.90656,49.99786c-1.42,0-1.851-.734-1.557-1.448.381-.915,1.252-1.212,3.354-1.276.785-.024,2.064-.011,3.754-.005.51.003,2.458-.339,2.458-.339s-.551,1.257-.693,1.671c-.351,1.025-2.411,1.35706-3.638,1.397-1.05.029-2.127,0-3.678,0m-4.794-7.449s7.924-.041,11.005-.041c2.84,0,3.59.469,3.051,1.764h-7.111c-3.938,0-5.853.882-7.013,3.226-.815,1.648-.074,5.483,4.129,5.522.952.01,2.839,0,4.033,0a5.33054,5.33054,0,0,0,2.752-.974l-.36.842h3.748s2.14-5.152,3.079-7.438c1.16-2.819.465-5.896-4.616-5.931-4.991-.037-11.407.05-11.407.05l-1.29,2.98" fill="#002d62"/><path d="M72.90256,64.52045c-1.267-1.349-1.435-3.719-.42-6.726,1.038-3.076,22.763-55.3,22.982-55.825h-3.417s-8.962,21.502-15.608,37.541h-4.635l-1.2,2.988h4.597c-3.05,7.366-5.39,13.051-5.746,14.01-2.219,5.976-.9,9.003,1.384,13.203,1.309,2.403,6.026,9.649,6.026,9.649l5.059-7.345a96.29907,96.29907,0,0,1-9.022-7.49506" fill="#002d62"/><path d="M77.90616,21.75543h-3.481c-.117-.358-1.079-3.316-1.079-3.316l-.29.895s-.669,2.063-.787,2.421h-3.482s2.515,1.826,2.818,2.048c-.115.356-1.077,3.312-1.077,3.312s2.516-1.827,2.818-2.049c.306.222,2.819,2.049,2.819,2.049s-.96-2.956-1.075-3.312c.301-.222,2.816-2.048,2.816-2.048" fill="#e21936"/><path d="M37.898,21.75543c-.117-.358-1.078-3.316-1.078-3.316l-.291.895s-.671,2.063-.787,2.421H32.261s2.514,1.826,2.817,2.048c-.116.356-1.077,3.312-1.077,3.312s2.516-1.827,2.819-2.049c.304.222,2.819,2.049,2.819,2.049s-.962-2.956-1.079-3.312c.305-.222,2.819-2.048,2.819-2.048H37.898" fill="#e21936"/><path d="M56.16127,21.75543c-.117-.358-1.075-3.316-1.075-3.316l-.295.895s-.67,2.063-.785,2.421h-3.481s2.513,1.826,2.815,2.048c-.115.356-1.076,3.312-1.076,3.312s2.516-1.827,2.818-2.049c.305.222,2.82,2.049,2.82,2.049s-.962-2.956-1.078-3.312c.304-.222,2.817-2.048,2.817-2.048h-3.48" fill="#e21936"/><polygon points="26.927 30.662 28.092 30.662 27.836 33.882 27.847 33.882 30.284 30.662 31.208 30.662 27.995 34.784 26.859 34.784 27.11 31.498 27.098 31.498 24.593 34.784 23.48 34.784 23.758 30.662 24.752 30.662 24.474 33.882 24.485 33.882 26.927 30.662" fill="#e21936"/><path d="M33.26926,30.6629h1.164l.355,4.121h-1.097l-.08-.924h-2.374l-.828.924h-.993Zm.297,2.52295-.095-1.792-1.618,1.792Z" fill="#e21936"/><path d="M36.78537,33.494c-.158.49005.077.788.807.788a1.33963,1.33963,0,0,0,1.312-.628c.126-.297-.027-.434-.457-.497l-.801-.114c-1.028-.149-1.191-.611-.96-1.152a2.511,2.511,0,0,1,2.417-1.335c1.205,0,1.639.505,1.313,1.34h-.925c.194-.537-.094-.73-.733-.73a1.16333,1.16333,0,0,0-1.047.564c-.134.319.044.452.386.502l1.111.167c.925.136.886.712.703,1.141a2.68151,2.68151,0,0,1-2.705,1.353c-1.192,0-1.721-.514-1.345-1.399Z" fill="#e21936"/><polygon points="42.087 30.662 43.011 30.662 42.299 32.34 44.542 32.34 45.256 30.662 46.179 30.662 44.429 34.784 43.504 34.784 44.256 33.013 42.012 33.013 41.261 34.784 40.336 34.784 42.087 30.662" fill="#e21936"/><polygon points="47.436 30.662 48.36 30.662 46.609 34.784 45.684 34.784 47.436 30.662" fill="#e21936"/><polygon points="49.628 30.662 50.93 30.662 51.92 33.825 51.931 33.825 53.275 30.662 54.109 30.662 52.357 34.784 51.113 34.784 50.09 31.564 50.079 31.564 48.71 34.784 47.877 34.784 49.628 30.662" fill="#e21936"/><path d="M58.28116,31.993c.217-.577-.283-.799-.739-.799a2.475,2.475,0,0,0-2.315,1.512c-.326.764-.232,1.513,1.036,1.513a4.25762,4.25762,0,0,0,1.21-.189l.333-.788h-1.318l.272-.639h2.221l-.819,1.924a7.47289,7.47289,0,0,1-2.243.366c-1.536,0-2.289-.685-1.654-2.181a3.63409,3.63409,0,0,1,3.412-2.156c1.243,0,1.974.472,1.564,1.437Z" fill="#e21936"/><polygon points="64.594 30.662 64.308 31.336 62.738 31.336 61.274 34.784 60.348 34.784 61.814 31.336 60.244 31.336 60.53 30.662 64.594 30.662" fill="#e21936"/><path d="M67.57406,30.55554c1.519,0,2.096.724,1.482,2.168a3.40385,3.40385,0,0,1-3.326,2.169c-1.518,0-2.095-.725-1.481-2.169a3.40351,3.40351,0,0,1,3.325-2.168m-1.557,3.66394a2.24284,2.24284,0,0,0,2.081-1.496c.411-.971.087-1.496-.809-1.496a2.24451,2.24451,0,0,0-2.08,1.496c-.414.971-.082,1.496.808,1.496" fill="#e21936"/><polygon points="70.959 30.662 72.262 30.662 73.251 33.825 73.262 33.825 74.607 30.662 75.44 30.662 73.689 34.784 72.444 34.784 71.421 31.564 71.411 31.564 70.041 34.784 69.208 34.784 70.959 30.662" fill="#e21936"/><polygon points="88.309 66.408 85.087 70.371 94.905 70.371 98.12 66.408 88.309 66.408" fill="#e21936"/></svg>