<svg id="Layer_1" data-name="Layer 1" xmlns="http://www.w3.org/2000/svg" viewBox="0 0 55.81624 75.56733"><title>Untitled-35</title><path d="M32.3376,4.11482,27.88391,0,23.47864,4.11482H0v51.653c8.76213,9.73032,16.12039,14.37765,27.88391,19.79952,11.76353-5.42187,19.17019-10.02079,27.93233-19.79952V4.11482Z" fill="#fff" fill-rule="evenodd"/><path d="M31.95032,5.083c-.04841-.04841-4.06641-3.77594-4.06641-3.77594s-3.96959,3.72753-4.018,3.77594H.96819V55.38055c8.22963,9.14938,15.53947,13.89352,26.91572,19.12176,11.37625-5.22824,18.7345-9.97238,26.96413-19.12176V5.083Z" fill="#85714d" fill-rule="evenodd"/><path d="M52.91167,7.0194v47.635c-7.50349,8.32645-15.39425,13.26422-25.02775,17.71792-9.5851-4.4537-17.47586-9.39147-24.97934-17.71792V7.0194H19.7027c-6.63211,3.87276-10.989,10.60168-10.989,19.65427V52.28232A59.94887,59.94887,0,0,0,25.173,64.43312L12.44126,27.73868l11.95716,5.76073L22.94614,34.9033l4.30845,13.942h1.30706l4.30845-13.942-1.45229-1.40389L43.375,27.73868,30.64327,64.43312a60.41643,60.41643,0,0,0,16.45925-12.1508V26.67367c0-9.05259-4.35686-15.78152-10.989-19.65427Z" fill="#27251f" fill-rule="evenodd"/><path d="M46.13433,30.35279,35.53263,60.94762l1.83957-2.372a64.30983,64.30983,0,0,0,7.74553-7.0678V35.87148ZM31.22418,6.92256A3.77863,3.77863,0,0,1,31.95032,5.083s-3.58231-3.34025-4.018-3.72753l-.04841-.04841V38.04992l2.71094-8.6169,14.184-6.82577C43.52021,15.249,38.72766,9.63351,31.22418,6.92256Z" fill="#333f48" fill-rule="evenodd"/><polygon points="24.06 35.194 24.398 33.499 22.946 34.903 27.255 48.845 27.884 47.587 24.06 35.194" fill="#fff" fill-rule="evenodd"/><path d="M9.68192,30.35279l8.81054,25.46343L13.60309,44.29475l-2.90457-8.42327ZM24.2532,27.8355,12.92536,23.52705l12.296,5.906v-17.96Z" fill="#333f48" fill-rule="evenodd"/><path d="M24.59207,6.92256a8.173,8.173,0,0,0-.38728-1.16181,1.2908,1.2908,0,0,0-.33887-.67776C14.95856,8.32645,8.71372,15.82992,8.71372,26.67367V52.28232c.33887.33888.67773.67776.96819,1.01661V26.67367c0-9.101,4.40527-16.41084,13.89355-20.42884a5.21167,5.21167,0,0,1,.96819.67773ZM43.375,27.73868,30.64326,64.43312,32.386,62.44833l12.24762-35.339Z" fill="#fff" fill-rule="evenodd"/></svg>